<svg aria-hidden="true" style="position: absolute; width: 0; height: 0; overflow: hidden;" version="1.1" xmlns="http://www.w3.org/2000/svg" xmlns:xlink="http://www.w3.org/1999/xlink">
<defs>
<symbol id="icon-burger" viewBox="0 0 58 32">
<path fill="#8e32c6" style="fill: var(--color1, #8e32c6)" d="M1.28 0h55.040c0.707 0 1.28 0.573 1.28 1.28v3.84c0 0.707-0.573 1.28-1.28 1.28h-55.040c-0.707 0-1.28-0.573-1.28-1.28v-3.84c0-0.707 0.573-1.28 1.28-1.28z"></path>
<path fill="#8e32c6" style="fill: var(--color1, #8e32c6)" d="M16.64 12.8h39.68c0.707 0 1.28 0.573 1.28 1.28v3.84c0 0.707-0.573 1.28-1.28 1.28h-39.68c-0.707 0-1.28-0.573-1.28-1.28v-3.84c0-0.707 0.573-1.28 1.28-1.28z"></path>
<path fill="#8e32c6" style="fill: var(--color1, #8e32c6)" d="M35.84 25.6h20.48c0.707 0 1.28 0.573 1.28 1.28v3.84c0 0.707-0.573 1.28-1.28 1.28h-20.48c-0.707 0-1.28-0.573-1.28-1.28v-3.84c0-0.707 0.573-1.28 1.28-1.28z"></path>
</symbol>
<symbol id="icon-close" viewBox="0 0 58 32">
<path fill="#8e32c6" style="fill: var(--color1, #8e32c6)" d="M1.28 0h55.040c0.707 0 1.28 0.573 1.28 1.28v3.84c0 0.707-0.573 1.28-1.28 1.28h-55.040c-0.707 0-1.28-0.573-1.28-1.28v-3.84c0-0.707 0.573-1.28 1.28-1.28z"></path>
<path fill="#8e32c6" style="fill: var(--color1, #8e32c6)" d="M16.64 12.8h39.68c0.707 0 1.28 0.573 1.28 1.28v3.84c0 0.707-0.573 1.28-1.28 1.28h-39.68c-0.707 0-1.28-0.573-1.28-1.28v-3.84c0-0.707 0.573-1.28 1.28-1.28z"></path>
<path fill="#8e32c6" style="fill: var(--color1, #8e32c6)" d="M35.84 25.6h20.48c0.707 0 1.28 0.573 1.28 1.28v3.84c0 0.707-0.573 1.28-1.28 1.28h-20.48c-0.707 0-1.28-0.573-1.28-1.28v-3.84c0-0.707 0.573-1.28 1.28-1.28z"></path>
</symbol>
</defs>
</svg>